<mxfile host="app.diagrams.net" agent="Mozilla/5.0 (Macintosh; Intel Mac OS X 10_15_7) AppleWebKit/537.36 (KHTML, like Gecko) Chrome/127.0.0.0 Safari/537.36" version="24.7.6">
  <diagram id="pabh4VRL329Ow-zuKTrx" name="Page-2">
    <mxGraphModel grid="1" page="1" gridSize="10" guides="1" tooltips="1" connect="1" arrows="1" fold="1" pageScale="1" pageWidth="850" pageHeight="1100" math="0" shadow="0">
      <root>
        <mxCell id="0" />
        <mxCell id="1" parent="0" />
        <mxCell id="z3incYetGYqbkUJ2la4z-1" value="" style="rounded=1;whiteSpace=wrap;html=1;fillColor=#dae8fc;strokeWidth=4;strokeColor=none;" vertex="1" parent="1">
          <mxGeometry x="230" y="610" width="837" height="360" as="geometry" />
        </mxCell>
        <mxCell id="z3incYetGYqbkUJ2la4z-2" value="PipeModule:&lt;b&gt;&amp;nbsp;Pipeline Parallel&lt;/b&gt;" style="rounded=1;whiteSpace=wrap;html=1;fontSize=24;fillColor=#3399ff;strokeColor=none;verticalAlign=middle;fontColor=#FFFFFF;" vertex="1" parent="1">
          <mxGeometry x="261" y="643" width="600" height="50" as="geometry" />
        </mxCell>
        <mxCell id="z3incYetGYqbkUJ2la4z-3" value="DistributedDataParallel: &lt;b&gt;Data Parallel&lt;/b&gt;" style="rounded=1;whiteSpace=wrap;html=1;fontSize=24;fillColor=#3399ff;strokeColor=none;verticalAlign=middle;fontColor=#FFFFFF;" vertex="1" parent="1">
          <mxGeometry x="261" y="783" width="600" height="50" as="geometry" />
        </mxCell>
        <mxCell id="z3incYetGYqbkUJ2la4z-4" value="DModule: &lt;b&gt;Tensor Parallel &amp;amp; Sequence Parallel&lt;/b&gt;" style="rounded=1;whiteSpace=wrap;html=1;fontSize=24;fillColor=#3399ff;strokeColor=none;verticalAlign=middle;fontColor=#FFFFFF;" vertex="1" parent="1">
          <mxGeometry x="261" y="848" width="600" height="50" as="geometry" />
        </mxCell>
        <mxCell id="z3incYetGYqbkUJ2la4z-5" value="DistributedOptimizer: &lt;b&gt;Optimizer Parallel&lt;/b&gt;" style="rounded=1;whiteSpace=wrap;html=1;fontSize=24;fillColor=#3399ff;strokeColor=none;verticalAlign=middle;fontColor=#FFFFFF;" vertex="1" parent="1">
          <mxGeometry x="261" y="713" width="600" height="50" as="geometry" />
        </mxCell>
        <mxCell id="z3incYetGYqbkUJ2la4z-6" value="&lt;span style=&quot;font-size: 18px;&quot;&gt;VeDeviceMesh:&lt;br&gt;&lt;b&gt;&lt;i&gt;n-D&lt;/i&gt;&amp;nbsp;&lt;br&gt;Device &lt;br&gt;Mesh&lt;/b&gt;&lt;br&gt;&lt;/span&gt;" style="rounded=1;whiteSpace=wrap;html=1;fontSize=18;fillColor=#3399ff;strokeColor=none;verticalAlign=middle;rotation=0;direction=west;fontStyle=0;fontColor=#FFFFFF;" vertex="1" parent="1">
          <mxGeometry x="887" y="643" width="140" height="255" as="geometry" />
        </mxCell>
        <mxCell id="z3incYetGYqbkUJ2la4z-7" value="" style="edgeStyle=orthogonalEdgeStyle;rounded=0;orthogonalLoop=1;jettySize=auto;html=1;fillColor=#f5f5f5;strokeColor=#999999;endArrow=block;endFill=1;strokeWidth=7;exitX=0.5;exitY=1;exitDx=0;exitDy=0;endSize=6;entryX=0.155;entryY=0.004;entryDx=0;entryDy=0;entryPerimeter=0;" edge="1" parent="1" source="z3incYetGYqbkUJ2la4z-8" target="z3incYetGYqbkUJ2la4z-1">
          <mxGeometry relative="1" as="geometry">
            <mxPoint x="472" y="659" as="targetPoint" />
          </mxGeometry>
        </mxCell>
        <mxCell id="z3incYetGYqbkUJ2la4z-8" value="&amp;nbsp; &amp;nbsp; Model" style="rounded=0;whiteSpace=wrap;html=1;fillColor=#B5739D;strokeColor=none;labelBackgroundColor=none;container=0;fontColor=#FFFFFF;fontSize=24;fontStyle=1" vertex="1" parent="1">
          <mxGeometry x="261" y="520" width="197" height="50" as="geometry" />
        </mxCell>
        <mxCell id="z3incYetGYqbkUJ2la4z-9" value="Parallel Plan &lt;span style=&quot;font-weight: normal;&quot;&gt;(Manual, Predefined, Auto*)&lt;/span&gt;" style="rounded=0;whiteSpace=wrap;html=1;fillColor=#B5739D;strokeColor=none;labelBackgroundColor=none;container=0;fontColor=#FFFFFF;fontSize=24;fontStyle=1" vertex="1" parent="1">
          <mxGeometry x="488" y="520" width="539" height="50" as="geometry" />
        </mxCell>
        <mxCell id="z3incYetGYqbkUJ2la4z-10" value="&lt;b style=&quot;border-color: var(--border-color); font-family: Helvetica; font-style: normal; font-variant-ligatures: normal; font-variant-caps: normal; letter-spacing: normal; orphans: 2; text-align: center; text-indent: 0px; text-transform: none; widows: 2; word-spacing: 0px; -webkit-text-stroke-width: 0px; text-decoration-thickness: initial; text-decoration-style: initial; text-decoration-color: initial;&quot;&gt;&lt;font style=&quot;font-size: 28px;&quot;&gt;Auto-Parallelize&lt;/font&gt;&lt;/b&gt;" style="text;whiteSpace=wrap;html=1;fontColor=#333333;" vertex="1" parent="1">
          <mxGeometry x="808" y="912" width="233" height="50" as="geometry" />
        </mxCell>
        <mxCell id="z3incYetGYqbkUJ2la4z-11" value="" style="edgeStyle=orthogonalEdgeStyle;rounded=0;orthogonalLoop=1;jettySize=auto;html=1;fillColor=#f5f5f5;strokeColor=#999999;endArrow=block;endFill=1;strokeWidth=7;exitX=0.5;exitY=1;exitDx=0;exitDy=0;endSize=6;entryX=0.63;entryY=0;entryDx=0;entryDy=0;entryPerimeter=0;" edge="1" parent="1" source="z3incYetGYqbkUJ2la4z-9" target="z3incYetGYqbkUJ2la4z-1">
          <mxGeometry relative="1" as="geometry">
            <mxPoint x="808" y="590" as="targetPoint" />
            <mxPoint x="370" y="580" as="sourcePoint" />
            <Array as="points">
              <mxPoint x="757" y="590" />
              <mxPoint x="757" y="590" />
            </Array>
          </mxGeometry>
        </mxCell>
        <mxCell id="z3incYetGYqbkUJ2la4z-12" value="" style="shape=actor;whiteSpace=wrap;html=1;fillColor=#E1D5E7;strokeColor=none;gradientColor=none;container=0;" vertex="1" parent="1">
          <mxGeometry x="288" y="528.88" width="30" height="32.25" as="geometry" />
        </mxCell>
      </root>
    </mxGraphModel>
  </diagram>
</mxfile>
